<svg width="25" height="24" viewBox="0 0 25 24" fill="none" xmlns="http://www.w3.org/2000/svg">
<g id="mdi:twitter">
<path id="Vector" d="M22.96 6C22.19 6.35 21.36 6.58 20.5 6.69C21.38 6.16 22.06 5.32 22.38 4.31C21.55 4.81 20.63 5.16 19.66 5.36C18.87 4.5 17.76 4 16.5 4C14.15 4 12.23 5.92 12.23 8.29C12.23 8.63 12.27 8.96 12.34 9.27C8.78 9.09 5.61 7.38 3.5 4.79C3.13 5.42 2.92 6.16 2.92 6.94C2.92 8.43 3.67 9.75 4.83 10.5C4.12 10.5 3.46 10.3 2.88 10V10.03C2.88 12.11 4.36 13.85 6.32 14.24C5.69073 14.4122 5.0301 14.4362 4.39 14.31C4.66161 15.1625 5.19354 15.9084 5.91102 16.4429C6.6285 16.9775 7.49545 17.2737 8.39 17.29C6.87363 18.4904 4.994 19.1393 3.06 19.13C2.72 19.13 2.38 19.11 2.04 19.07C3.94 20.29 6.2 21 8.62 21C16.5 21 20.83 14.46 20.83 8.79C20.83 8.6 20.83 8.42 20.82 8.23C21.66 7.63 22.38 6.87 22.96 6Z" fill="white"/>
</g>
</svg>
