<svg width="220" height="30" viewBox="0 0 220 30" fill="none" xmlns="http://www.w3.org/2000/svg">
<g clip-path="url(#clip0_1_264)">
<g clip-path="url(#clip1_1_264)">
<g clip-path="url(#clip2_1_264)">
<path d="M37.6501 6.21924C37.6501 5.00569 37.2102 4.02191 36.6676 4.02191C36.125 4.02191 35.6852 5.00569 35.6852 6.21924V23.7808C35.6852 24.9943 36.125 25.9781 36.6676 25.9781C37.2102 25.9781 37.6501 24.9943 37.6501 23.7808V6.21924Z" fill="white"/>
<g clip-path="url(#clip3_1_264)">
<g clip-path="url(#clip4_1_264)">
<g clip-path="url(#clip5_1_264)">
<g clip-path="url(#clip6_1_264)">
<path d="M49.0678 22.6647C47.8718 22.6647 46.8006 22.4509 45.8541 22.0234C44.9112 21.5993 44.171 21.0083 43.6337 20.2506C43.0963 19.4963 42.819 18.6238 42.8016 17.6331H45.3237C45.4104 18.4847 45.7623 19.2008 46.3794 19.7813C46.993 20.3653 47.8891 20.6573 49.0678 20.6573C50.1945 20.6573 51.0838 20.374 51.7355 19.8074C52.3838 19.2443 52.708 18.5195 52.708 17.6331C52.708 16.9379 52.5173 16.373 52.1359 15.9385C51.7546 15.504 51.2779 15.1738 50.7059 14.9479C50.1339 14.7219 49.3625 14.4786 48.3918 14.2179C47.1958 13.905 46.2389 13.5922 45.5213 13.2794C44.8002 12.9665 44.1849 12.4746 43.6753 11.8038C43.1622 11.1364 42.9056 10.2378 42.9056 9.10809C42.9056 8.11742 43.157 7.23971 43.6597 6.47498C44.1623 5.71025 44.8696 5.11932 45.7813 4.7022C46.6896 4.28507 47.7331 4.07651 48.9118 4.07651C50.6106 4.07651 52.0025 4.50232 53.0876 5.35396C54.1692 6.20559 54.7794 7.3353 54.918 8.74311H52.3179C52.2313 8.04789 51.8673 7.43437 51.2259 6.90254C50.5846 6.37418 49.7352 6.11 48.6778 6.11C47.6898 6.11 46.8838 6.36549 46.2597 6.87647C45.6357 7.39092 45.3237 8.10873 45.3237 9.02988C45.3237 9.69033 45.5109 10.2291 45.8853 10.6462C46.2563 11.0634 46.7156 11.3797 47.2634 11.5952C47.8077 11.8142 48.5738 12.0627 49.5619 12.3408C50.7579 12.671 51.7199 12.9978 52.448 13.3211C53.176 13.6409 53.8 14.1345 54.32 14.8019C54.84 15.4727 55.1 16.3817 55.1 17.5288C55.1 18.4152 54.866 19.2495 54.398 20.0316C53.93 20.8137 53.2366 21.4481 52.3179 21.9347C51.3993 22.4214 50.3159 22.6647 49.0678 22.6647ZM57.4661 4.31114H69.7385V6.24035H64.7984V22.4822H62.4323V6.24035H57.4661V4.31114ZM82.4009 6.24035H75.0167V12.3147H81.6209V14.27H75.0167V20.5269H82.4009V22.4822H72.6506V4.28507H82.4009V6.24035ZM88.3499 4.31114V20.553H94.6941V22.4822H85.9839V4.31114H88.3499ZM99.5823 4.31114V20.553H105.927V22.4822H97.2162V4.31114H99.5823ZM120.617 22.4822L119.161 18.4413H111.257L109.801 22.4822H107.305L113.857 4.41542H116.587L123.113 22.4822H120.617ZM111.933 16.5121H118.485L115.209 7.33531L111.933 16.5121ZM138.35 22.4822H135.51L131.199 15.0521H128.339V22.4822H125.968V4.31114H131.818C133.191 4.31114 134.349 4.54577 135.292 5.01504C136.238 5.48431 136.944 6.11869 137.408 6.91818C137.876 7.71767 138.11 8.63013 138.11 9.65557C138.11 10.9069 137.752 12.0106 137.034 12.9665C136.316 13.9224 135.238 14.5568 133.799 14.8696L138.35 22.4822ZM128.339 6.26642V13.149H131.818C133.104 13.149 134.068 12.8309 134.709 12.1948C135.351 11.5622 135.671 10.7158 135.671 9.65557C135.671 8.57799 135.354 7.74374 134.72 7.15281C134.085 6.56188 133.118 6.26642 131.818 6.26642H128.339ZM159.379 25.9235H156.311L152.697 22.2997C151.813 22.543 150.911 22.6647 149.993 22.6647C148.311 22.6647 146.777 22.2684 145.391 21.4759C144.004 20.6868 142.908 19.5832 142.104 18.1649C141.296 16.7502 140.892 15.1564 140.892 13.3836C140.892 11.6108 141.296 10.0153 142.104 8.59711C142.908 7.18236 144.004 6.07871 145.391 5.28617C146.777 4.49711 148.311 4.10258 149.993 4.10258C151.691 4.10258 153.234 4.49711 154.621 5.28617C156.008 6.07871 157.1 7.17888 157.897 8.58668C158.694 9.99448 159.093 11.5935 159.093 13.3836C159.093 15.1217 158.712 16.6859 157.949 18.0763C157.186 19.4667 156.138 20.5617 154.803 21.3612L159.379 25.9235ZM143.311 13.3836C143.311 14.8262 143.602 16.095 144.184 17.1899C144.763 18.2849 145.56 19.1278 146.576 19.7187C147.589 20.3097 148.727 20.6051 149.993 20.6051C151.258 20.6051 152.399 20.3097 153.414 19.7187C154.427 19.1278 155.224 18.2849 155.807 17.1899C156.386 16.095 156.675 14.8262 156.675 13.3836C156.675 11.9237 156.386 10.6497 155.807 9.56171C155.224 8.47719 154.43 7.63946 153.425 7.04853C152.42 6.4576 151.275 6.16214 149.993 6.16214C148.71 6.16214 147.566 6.4576 146.561 7.04853C145.555 7.63946 144.763 8.47719 144.184 9.56171C143.602 10.6497 143.311 11.9237 143.311 13.3836ZM162.213 4.31114H164.579V15.8082C164.579 17.4245 164.974 18.6238 165.765 19.4059C166.552 20.188 167.647 20.5791 169.051 20.5791C170.438 20.5791 171.527 20.188 172.317 19.4059C173.104 18.6238 173.498 17.4245 173.498 15.8082V4.31114H175.864V15.7821C175.864 17.2942 175.56 18.5664 174.954 19.5988C174.347 20.6347 173.529 21.4046 172.499 21.9086C171.466 22.4127 170.308 22.6647 169.025 22.6647C167.743 22.6647 166.587 22.4127 165.557 21.9086C164.524 21.4046 163.709 20.6347 163.113 19.5988C162.513 18.5664 162.213 17.2942 162.213 15.7821V4.31114ZM189.566 6.24035H182.182V12.3147H188.786V14.27H182.182V20.5269H189.566V22.4822H179.816V4.28507H189.566V6.24035ZM198.895 22.6647C197.699 22.6647 196.63 22.4509 195.687 22.0234C194.744 21.5993 194.002 21.0083 193.461 20.2506C192.924 19.4963 192.648 18.6238 192.634 17.6331H195.151C195.238 18.4847 195.59 19.2008 196.207 19.7813C196.824 20.3653 197.72 20.6573 198.895 20.6573C200.022 20.6573 200.911 20.374 201.563 19.8074C202.211 19.2443 202.535 18.5195 202.535 17.6331C202.535 16.9379 202.346 16.373 201.968 15.9385C201.584 15.504 201.107 15.1738 200.538 14.9479C199.963 14.7219 199.192 14.4786 198.224 14.2179C197.025 13.905 196.066 13.5922 195.349 13.2794C194.631 12.9665 194.016 12.4746 193.503 11.8038C192.993 11.1364 192.738 10.2378 192.738 9.10809C192.738 8.11742 192.99 7.23971 193.492 6.47498C193.991 5.71025 194.697 5.11932 195.609 4.7022C196.517 4.28507 197.562 4.07651 198.744 4.07651C200.443 4.07651 201.833 4.50232 202.915 5.35396C204 6.20559 204.61 7.3353 204.745 8.74311H202.145C202.059 8.04789 201.696 7.43437 201.058 6.90254C200.414 6.37418 199.563 6.11 198.505 6.11C197.521 6.11 196.716 6.36549 196.092 6.87647C195.465 7.39092 195.151 8.10873 195.151 9.02988C195.151 9.69033 195.338 10.2291 195.713 10.6462C196.087 11.0634 196.546 11.3797 197.091 11.5952C197.638 11.8142 198.406 12.0627 199.394 12.3408C200.59 12.671 201.551 12.9978 202.275 13.3211C203.007 13.6409 203.633 14.1345 204.153 14.8019C204.673 15.4727 204.933 16.3817 204.933 17.5288C204.933 18.4152 204.697 19.2495 204.225 20.0316C203.761 20.8137 203.067 21.4481 202.145 21.9347C201.23 22.4214 200.147 22.6647 198.895 22.6647ZM207.293 4.31114H219.566V6.24035H214.626V22.4822H212.26V6.24035H207.293V4.31114Z" fill="white"/>
</g>
</g>
</g>
</g>
<g clip-path="url(#clip7_1_264)">
<g clip-path="url(#clip8_1_264)">
<path d="M8.58844 23.7393C10.821 22.6554 14.0288 20.3568 17.4153 16.9658C19.9582 14.4191 22.1125 11.7415 23.4808 9.42606C23.7885 8.90463 24.0291 8.4457 24.2209 8.0387C22.1778 5.47533 19.0362 3.82861 15.5167 3.82861C9.37316 3.82861 4.37512 8.84002 4.37512 15C4.37512 18.5358 6.02377 21.6907 8.58844 23.7393Z" fill="white"/>
<path d="M15.6299 26.1683C21.6846 26.1073 26.5968 21.1804 26.6552 15.1086C25.1945 17.0987 23.4615 19.1186 21.5108 21.0717C19.5848 23.0007 17.5932 24.7175 15.6299 26.1683Z" fill="white"/>
<path d="M29.608 0.838319C27.7606 -1.0116 23.5283 -0.0230823 18.6679 2.99046C20.1127 3.34312 21.4533 3.94184 22.6436 4.77607C23.9858 4.22414 25.2381 4.22656 25.7311 4.72021C26.4474 5.43729 26.1249 7.06891 25.0174 9.17365C25.0144 9.16882 25.0117 9.16369 25.009 9.15916C23.7126 11.628 21.332 14.7512 18.2665 17.8209C15.2375 20.8537 12.1558 23.2178 9.70379 24.5264C9.7065 24.5279 9.70921 24.5294 9.71162 24.5312C7.57816 25.6683 5.92289 26.0046 5.19929 25.2797C4.63077 24.7106 4.71448 23.5636 5.35978 22.0053C4.52567 20.8054 3.92674 19.4634 3.57834 18.0223C0.55356 22.9038 -0.497661 27.3389 1.32293 29.1619C4.20016 32.0429 12.8653 28.0384 20.6758 20.2173C28.4863 12.3964 32.4856 3.71932 29.608 0.838319Z" fill="white"/>
</g>
</g>
</g>
</g>
</g>
<defs>
<clipPath id="clip0_1_264">
<rect width="220" height="30" fill="white"/>
</clipPath>
<clipPath id="clip1_1_264">
<rect width="219.147" height="30.1925" fill="white" transform="translate(0.426331 -0.0962524)"/>
</clipPath>
<clipPath id="clip2_1_264">
<rect width="219.147" height="30.1925" fill="white" transform="translate(0.426331 -0.0962524)"/>
</clipPath>
<clipPath id="clip3_1_264">
<rect width="176.78" height="21.847" fill="white" transform="translate(42.7938 4.07654)"/>
</clipPath>
<clipPath id="clip4_1_264">
<rect width="176.78" height="21.847" fill="white" transform="translate(42.7938 4.07654)"/>
</clipPath>
<clipPath id="clip5_1_264">
<rect width="176.78" height="21.847" fill="white" transform="translate(42.7938 4.07654)"/>
</clipPath>
<clipPath id="clip6_1_264">
<rect width="176.78" height="21.847" fill="white" transform="translate(42.7938 4.07654)"/>
</clipPath>
<clipPath id="clip7_1_264">
<rect width="30.115" height="30.1925" fill="white" transform="translate(0.426331 -0.0962524)"/>
</clipPath>
<clipPath id="clip8_1_264">
<rect width="30.115" height="30.1925" fill="white" transform="translate(0.426331 -0.0962524)"/>
</clipPath>
</defs>
</svg>
